<?xml version="1.0" encoding="utf-8"?>
<svg xmlns="http://www.w3.org/2000/svg">
<symbol id="beneficiary" viewBox="0 0 20 16">
<title>user</title>
<desc>Created using Figma</desc>
<g id="Canvas" transform="translate(-1945 -4614)" figma:type="canvas">
<g id="user" figma:type="frame">
<g id="Fill 1" figma:type="vector">
<use xlink:href="#path0_fill" transform="translate(1957.22 4617.99)" fill="#7C86A2"/>
<use xlink:href="#path1_stroke" transform="translate(1957.22 4617.99)" fill="#7C86A2"/>
</g>
<g id="Fill 3" figma:type="vector-operation">
<use xlink:href="#path2_fill" transform="translate(1946 4615.02)" fill="#7C86A2"/>
<use xlink:href="#path3_stroke" transform="translate(1946 4615.02)" fill="#7C86A2"/>
</g>
</g>
</g>
<defs>
<path id="path0_fill" fill-rule="evenodd" d="M 6.77793 8.1448C 5.74182 7.27867 4.62659 6.6577 4.17829 6.42375L 4.17829 4.93292C 4.41947 4.69897 4.55892 4.37706 4.55892 4.03215L 4.55892 2.1118C 4.55892 0.946808 3.62821 0 2.48284 0L 2.07589 0C 0.930706 0 0 0.946808 0 2.1118L 0 4.03215C 0 4.37706 0.139451 4.69897 0.38044 4.93292L 0.38044 5.26675C 0.38044 5.47746 0.546405 5.64611 0.753532 5.64611C 0.960706 5.64611 1.12644 5.47746 1.12644 5.26675L 1.12644 4.75268C 1.12644 4.6262 1.06243 4.50733 0.960706 4.43848C 0.825118 4.3464 0.745997 4.19706 0.745997 4.03215L 0.745997 2.1118C 0.745997 1.36828 1.34133 0.758903 2.07589 0.758903L 2.48284 0.758903C 3.21372 0.758903 3.81292 1.36449 3.81292 2.1118L 3.81292 4.03215C 3.81292 4.19706 3.7338 4.3464 3.59807 4.43848C 3.49262 4.50733 3.43229 4.6262 3.43229 4.75268L 3.43229 6.60792C 3.43229 6.78423 3.53402 6.9489 3.68854 7.02565C 3.9259 7.14447 5.16179 7.78058 6.3033 8.73113C 6.42768 8.83461 6.49922 8.99185 6.49922 9.15672L 6.49922 10.4752C 6.49922 10.6859 6.66499 10.8546 6.87212 10.8546C 7.07943 10.8546 7.24521 10.6859 7.24521 10.4752L 7.24521 9.15672C 7.24521 8.76184 7.07557 8.39388 6.77793 8.1448Z"/>
<path id="path1_stroke" d="M 6.77793 8.1448L 6.93837 7.95307L 6.93827 7.95299L 6.77793 8.1448ZM 4.17829 6.42375L 3.92829 6.42375L 3.92829 6.57528L 4.06263 6.64539L 4.17829 6.42375ZM 4.17829 4.93292L 4.00422 4.75347L 3.92829 4.82713L 3.92829 4.93292L 4.17829 4.93292ZM 0.38044 4.93292L 0.63044 4.93292L 0.63044 4.82719L 0.554576 4.75354L 0.38044 4.93292ZM 0.960706 4.43848L 0.82025 4.6453L 0.820584 4.64552L 0.960706 4.43848ZM 3.59807 4.43848L 3.73477 4.64785L 3.73843 4.64536L 3.59807 4.43848ZM 3.68854 7.02565L 3.80045 6.8021L 3.79975 6.80175L 3.68854 7.02565ZM 6.3033 8.73113L 6.14332 8.92324L 6.1434 8.9233L 6.3033 8.73113ZM 6.93827 7.95299C 5.88343 7.07264 4.74524 6.43765 4.29395 6.20212L 4.06263 6.64539C 4.50794 6.87775 5.60021 7.4847 6.61759 8.33661L 6.93827 7.95299ZM 4.42829 6.42375L 4.42829 4.93292L 3.92829 4.93292L 3.92829 6.42375L 4.42829 6.42375ZM 4.35236 5.11237C 4.64159 4.83181 4.80892 4.44536 4.80892 4.03215L 4.30892 4.03215C 4.30892 4.30876 4.19735 4.56614 4.00422 4.75347L 4.35236 5.11237ZM 4.80892 4.03215L 4.80892 2.1118L 4.30892 2.1118L 4.30892 4.03215L 4.80892 4.03215ZM 4.80892 2.1118C 4.80892 0.812783 3.77029 -0.25 2.48284 -0.25L 2.48284 0.25C 3.48613 0.25 4.30892 1.08083 4.30892 2.1118L 4.80892 2.1118ZM 2.48284 -0.25L 2.07589 -0.25L 2.07589 0.25L 2.48284 0.25L 2.48284 -0.25ZM 2.07589 -0.25C 0.78861 -0.25 -0.25 0.812797 -0.25 2.1118L 0.25 2.1118C 0.25 1.08082 1.0728 0.25 2.07589 0.25L 2.07589 -0.25ZM -0.25 2.1118L -0.25 4.03215L 0.25 4.03215L 0.25 2.1118L -0.25 2.1118ZM -0.25 4.03215C -0.25 4.44535 -0.0826791 4.83176 0.206303 5.1123L 0.554576 4.75354C 0.36158 4.56619 0.25 4.30877 0.25 4.03215L -0.25 4.03215ZM 0.13044 4.93292L 0.13044 5.26675L 0.63044 5.26675L 0.63044 4.93292L 0.13044 4.93292ZM 0.13044 5.26675C 0.13044 5.61164 0.404472 5.89611 0.753532 5.89611L 0.753532 5.39611C 0.688338 5.39611 0.63044 5.34328 0.63044 5.26675L 0.13044 5.26675ZM 0.753532 5.89611C 1.10282 5.89611 1.37644 5.61145 1.37644 5.26675L 0.876436 5.26675C 0.876436 5.34347 0.818589 5.39611 0.753532 5.39611L 0.753532 5.89611ZM 1.37644 5.26675L 1.37644 4.75268L 0.876436 4.75268L 0.876436 5.26675L 1.37644 5.26675ZM 1.37644 4.75268C 1.37644 4.54329 1.27132 4.34683 1.10083 4.23144L 0.820584 4.64552C 0.853543 4.66783 0.876436 4.7091 0.876436 4.75268L 1.37644 4.75268ZM 1.10116 4.23167C 1.03431 4.18627 0.995997 4.11449 0.995997 4.03215L 0.495997 4.03215C 0.495997 4.27963 0.615926 4.50653 0.82025 4.6453L 1.10116 4.23167ZM 0.995997 4.03215L 0.995997 2.1118L 0.495997 2.1118L 0.495997 4.03215L 0.995997 4.03215ZM 0.995997 2.1118C 0.995997 1.50184 1.48388 1.0089 2.07589 1.0089L 2.07589 0.508903C 1.19879 0.508903 0.495997 1.23472 0.495997 2.1118L 0.995997 2.1118ZM 2.07589 1.0089L 2.48284 1.0089L 2.48284 0.508903L 2.07589 0.508903L 2.07589 1.0089ZM 2.48284 1.0089C 3.07212 1.0089 3.56292 1.49901 3.56292 2.1118L 4.06292 2.1118C 4.06292 1.22998 3.35532 0.508903 2.48284 0.508903L 2.48284 1.0089ZM 3.56292 2.1118L 3.56292 4.03215L 4.06292 4.03215L 4.06292 2.1118L 3.56292 2.1118ZM 3.56292 4.03215C 3.56292 4.11447 3.52464 4.1862 3.45771 4.2316L 3.73843 4.64536C 3.94296 4.5066 4.06292 4.27965 4.06292 4.03215L 3.56292 4.03215ZM 3.46139 4.22915C 3.28055 4.34723 3.18229 4.54753 3.18229 4.75268L 3.68229 4.75268C 3.68229 4.70487 3.7047 4.66743 3.73474 4.64782L 3.46139 4.22915ZM 3.18229 4.75268L 3.18229 6.60792L 3.68229 6.60792L 3.68229 4.75268L 3.18229 4.75268ZM 3.18229 6.60792C 3.18229 6.87768 3.33647 7.12992 3.57733 7.24955L 3.79975 6.80175C 3.73157 6.76789 3.68229 6.69078 3.68229 6.60792L 3.18229 6.60792ZM 3.57663 7.24921C 3.81274 7.36739 5.02377 7.98903 6.14332 8.92324L 6.46327 8.53901C 5.29981 7.57213 4.03906 6.92155 3.80045 6.8021L 3.57663 7.24921ZM 6.1434 8.9233C 6.20839 8.97738 6.24922 9.06308 6.24922 9.15672L 6.74922 9.15672C 6.74922 8.92063 6.64696 8.69184 6.46319 8.53895L 6.1434 8.9233ZM 6.24922 9.15672L 6.24922 10.4752L 6.74922 10.4752L 6.74922 9.15672L 6.24922 9.15672ZM 6.24922 10.4752C 6.24922 10.8199 6.5229 11.1046 6.87212 11.1046L 6.87212 10.6046C 6.80709 10.6046 6.74922 10.5519 6.74922 10.4752L 6.24922 10.4752ZM 6.87212 11.1046C 7.22145 11.1046 7.49521 10.82 7.49521 10.4752L 6.99521 10.4752C 6.99521 10.5518 6.93742 10.6046 6.87212 10.6046L 6.87212 11.1046ZM 7.49521 10.4752L 7.49521 9.15672L 6.99521 9.15672L 6.99521 10.4752L 7.49521 10.4752ZM 7.49521 9.15672C 7.49521 8.6895 7.29405 8.25073 6.93837 7.95307L 6.61748 8.33652C 6.85709 8.53704 6.99521 8.83417 6.99521 9.15672L 7.49521 9.15672Z"/>
<path id="path2_fill" fill-rule="evenodd" d="M 6.0509 0L 6.57837 0C 7.99878 0 9.15527 1.17285 9.15527 2.61768L 9.15527 5.10938C 9.15527 5.54248 8.97449 5.94482 8.66199 6.22852L 8.66199 8.2749C 9.19299 8.54736 10.6814 9.35986 12.0677 10.5171C 12.4296 10.8164 12.6367 11.2646 12.6367 11.7397L 12.6367 13.4458C 12.6367 13.6562 12.4709 13.8252 12.2637 13.8252L 0.373047 13.8252C 0.165771 13.8252 0 13.6562 0 13.4458L 0 11.7397C 0 11.2607 0.207153 10.8164 0.561523 10.5171C 1.94788 9.35986 3.43616 8.55127 3.96729 8.2749L 3.96729 6.22852C 3.65479 5.94482 3.47388 5.53857 3.47388 5.10938L 3.47388 2.62158C 3.47388 1.17676 4.63049 0 6.0509 0ZM 11.593 11.1001C 10.1086 9.8584 8.49597 9.03027 8.18713 8.87695C 8.02136 8.79688 7.91577 8.62402 7.91956 8.43604L 7.91956 6.03711C 7.91956 5.91064 7.97998 5.7915 8.08533 5.72266C 8.29248 5.58447 8.41321 5.35498 8.41321 5.10547L 8.41321 2.61816C 8.41321 1.59082 7.5918 0.755371 6.58215 0.755371L 6.05457 0.755371C 5.04492 0.755371 4.22351 1.59082 4.22351 2.61816L 4.22351 5.10938C 4.22351 5.3584 4.3479 5.58838 4.55139 5.72656C 4.65308 5.79541 4.71704 5.91455 4.71704 6.04053L 4.71704 8.43994C 4.71704 8.62793 4.61169 8.79688 4.44568 8.88086C 4.13684 9.03418 2.52808 9.8623 1.03979 11.104C 0.855225 11.2573 0.745972 11.4912 0.745972 11.7402L 0.745972 13.0625L 11.8868 13.0625L 11.8868 11.7363C 11.8868 11.4912 11.7815 11.2573 11.593 11.1001Z"/>
<path id="path3_stroke" d="M 8.66199 6.22852L 8.49395 6.04341L 8.41199 6.11782L 8.41199 6.22852L 8.66199 6.22852ZM 8.66199 8.2749L 8.41199 8.2749L 8.41199 8.42762L 8.54786 8.49733L 8.66199 8.2749ZM 12.0677 10.5171L 11.9075 10.709L 11.9084 10.7097L 12.0677 10.5171ZM 0.561523 10.5171L 0.401317 10.3252L 0.400206 10.3261L 0.561523 10.5171ZM 3.96729 8.2749L 4.08268 8.49668L 4.21729 8.42664L 4.21729 8.2749L 3.96729 8.2749ZM 3.96729 6.22852L 4.21729 6.22852L 4.21729 6.11782L 4.13532 6.04341L 3.96729 6.22852ZM 8.18713 8.87695L 8.29831 8.65302L 8.29588 8.65184L 8.18713 8.87695ZM 11.593 11.1001L 11.4326 11.2919L 11.4329 11.2921L 11.593 11.1001ZM 7.91956 8.43604L 8.16956 8.44107L 8.16956 8.43604L 7.91956 8.43604ZM 8.08533 5.72266L 8.2221 5.93194L 8.22406 5.93063L 8.08533 5.72266ZM 4.55139 5.72656L 4.41095 5.93338L 4.41123 5.93358L 4.55139 5.72656ZM 4.44568 8.88086L 4.55685 9.10479L 4.55853 9.10394L 4.44568 8.88086ZM 1.03979 11.104L 1.19954 11.2963L 1.19995 11.296L 1.03979 11.104ZM 0.745972 13.0625L 0.495972 13.0625L 0.495972 13.3125L 0.745972 13.3125L 0.745972 13.0625ZM 11.8868 13.0625L 11.8868 13.3125L 12.1368 13.3125L 12.1368 13.0625L 11.8868 13.0625ZM 6.57837 -0.25L 6.0509 -0.25L 6.0509 0.25L 6.57837 0.25L 6.57837 -0.25ZM 9.40527 2.61768C 9.40527 1.03837 8.14042 -0.25 6.57837 -0.25L 6.57837 0.25C 7.85714 0.25 8.90527 1.30733 8.90527 2.61768L 9.40527 2.61768ZM 9.40527 5.10938L 9.40527 2.61768L 8.90527 2.61768L 8.90527 5.10938L 9.40527 5.10938ZM 8.83003 6.41362C 9.19467 6.08259 9.40527 5.61305 9.40527 5.10938L 8.90527 5.10938C 8.90527 5.47191 8.75431 5.80706 8.49395 6.04341L 8.83003 6.41362ZM 8.91199 8.2749L 8.91199 6.22852L 8.41199 6.22852L 8.41199 8.2749L 8.91199 8.2749ZM 12.228 10.3252C 10.8221 9.15319 9.30996 8.32641 8.77612 8.05247L 8.54786 8.49733C 9.07603 8.76831 10.5407 9.56653 11.9075 10.709L 12.228 10.3252ZM 12.8867 11.7397C 12.8867 11.192 12.6477 10.6724 12.2271 10.3245L 11.9084 10.7097C 12.2114 10.9604 12.3867 11.3373 12.3867 11.7397L 12.8867 11.7397ZM 12.8867 13.4458L 12.8867 11.7397L 12.3867 11.7397L 12.3867 13.4458L 12.8867 13.4458ZM 12.2637 14.0752C 12.6131 14.0752 12.8867 13.7902 12.8867 13.4458L 12.3867 13.4458C 12.3867 13.5223 12.3288 13.5752 12.2637 13.5752L 12.2637 14.0752ZM 0.373047 14.0752L 12.2637 14.0752L 12.2637 13.5752L 0.373047 13.5752L 0.373047 14.0752ZM -0.25 13.4458C -0.25 13.7902 0.0235899 14.0752 0.373047 14.0752L 0.373047 13.5752C 0.307953 13.5752 0.25 13.5223 0.25 13.4458L -0.25 13.4458ZM -0.25 11.7397L -0.25 13.4458L 0.25 13.4458L 0.25 11.7397L -0.25 11.7397ZM 0.400206 10.3261C -0.0111444 10.6735 -0.25 11.1881 -0.25 11.7397L 0.25 11.7397C 0.25 11.3334 0.425451 10.9593 0.722841 10.7081L 0.400206 10.3261ZM 3.85189 8.05313C 3.31878 8.33054 1.80741 9.15305 0.401319 10.3252L 0.721727 10.709C 2.08834 9.56667 3.55354 8.772 4.08268 8.49668L 3.85189 8.05313ZM 3.71729 6.22852L 3.71729 8.2749L 4.21729 8.2749L 4.21729 6.22852L 3.71729 6.22852ZM 3.22388 5.10938C 3.22388 5.60885 3.43439 6.08239 3.79925 6.41362L 4.13532 6.04341C 3.87518 5.80726 3.72388 5.4683 3.72388 5.10938L 3.22388 5.10938ZM 3.22388 2.62158L 3.22388 5.10938L 3.72388 5.10938L 3.72388 2.62158L 3.22388 2.62158ZM 6.0509 -0.25C 4.48839 -0.25 3.22388 1.04275 3.22388 2.62158L 3.72388 2.62158C 3.72388 1.31076 4.7726 0.25 6.0509 0.25L 6.0509 -0.25ZM 8.07597 9.10088C 8.38329 9.25344 9.97049 10.0668 11.4326 11.2919L 11.7534 10.9083C 10.2468 9.65004 8.60866 8.80711 8.2983 8.65303L 8.07597 9.10088ZM 7.66961 8.431C 7.66389 8.7151 7.82317 8.97878 8.07839 9.10206L 8.29588 8.65184C 8.21956 8.61497 8.16766 8.53294 8.16951 8.44107L 7.66961 8.431ZM 7.66956 6.03711L 7.66956 8.43604L 8.16956 8.43604L 8.16956 6.03711L 7.66956 6.03711ZM 7.94856 5.51338C 7.76783 5.6315 7.66956 5.83206 7.66956 6.03711L 8.16956 6.03711C 8.16956 5.98923 8.19213 5.95151 8.22209 5.93193L 7.94856 5.51338ZM 8.16321 5.10547C 8.16321 5.27294 8.08297 5.42371 7.9466 5.51468L 8.22406 5.93063C 8.50199 5.74523 8.66321 5.43702 8.66321 5.10547L 8.16321 5.10547ZM 8.16321 2.61816L 8.16321 5.10547L 8.66321 5.10547L 8.66321 2.61816L 8.16321 2.61816ZM 6.58215 1.00537C 7.44971 1.00537 8.16321 1.72484 8.16321 2.61816L 8.66321 2.61816C 8.66321 1.4568 7.73388 0.505371 6.58215 0.505371L 6.58215 1.00537ZM 6.05457 1.00537L 6.58215 1.00537L 6.58215 0.505371L 6.05457 0.505371L 6.05457 1.00537ZM 4.47351 2.61816C 4.47351 1.72484 5.18701 1.00537 6.05457 1.00537L 6.05457 0.505371C 4.90283 0.505371 3.97351 1.4568 3.97351 2.61816L 4.47351 2.61816ZM 4.47351 5.10938L 4.47351 2.61816L 3.97351 2.61816L 3.97351 5.10938L 4.47351 5.10938ZM 4.69184 5.51974C 4.55586 5.4274 4.47351 5.27435 4.47351 5.10938L 3.97351 5.10938C 3.97351 5.44245 4.13994 5.74935 4.41095 5.93338L 4.69184 5.51974ZM 4.96704 6.04053C 4.96704 5.83172 4.86203 5.63497 4.69155 5.51955L 4.41123 5.93358C 4.44412 5.95585 4.46704 5.99738 4.46704 6.04053L 4.96704 6.04053ZM 4.96704 8.43994L 4.96704 6.04053L 4.46704 6.04053L 4.46704 8.43994L 4.96704 8.43994ZM 4.55853 9.10394C 4.80793 8.97777 4.96704 8.72302 4.96704 8.43994L 4.46704 8.43994C 4.46704 8.53284 4.41546 8.61598 4.33283 8.65778L 4.55853 9.10394ZM 1.19995 11.296C 2.6662 10.0707 4.24964 9.25729 4.55684 9.10478L 4.33451 8.65693C 4.02404 8.81107 2.38995 9.65392 0.879637 10.912L 1.19995 11.296ZM 0.995972 11.7402C 0.995972 11.5637 1.07356 11.401 1.19954 11.2963L 0.880049 10.9117C 0.636893 11.1137 0.495972 11.4187 0.495972 11.7402L 0.995972 11.7402ZM 0.995972 13.0625L 0.995972 11.7402L 0.495972 11.7402L 0.495972 13.0625L 0.995972 13.0625ZM 11.8868 12.8125L 0.745972 12.8125L 0.745972 13.3125L 11.8868 13.3125L 11.8868 12.8125ZM 11.6368 11.7363L 11.6368 13.0625L 12.1368 13.0625L 12.1368 11.7363L 11.6368 11.7363ZM 11.4329 11.2921C 11.5623 11.4 11.6368 11.5625 11.6368 11.7363L 12.1368 11.7363C 12.1368 11.4199 12.0007 11.1146 11.7532 10.9081L 11.4329 11.2921Z"/>
</defs>

</symbol>
<symbol id="report" viewBox="0 0 15 15">
<title>Icon</title>
<desc>Created using Figma</desc>
<g id="Canvas" transform="translate(-1946 -4695)" figma:type="canvas">
<g id="Icon" figma:type="frame">
<g id="path" figma:type="vector">
<mask id="mask0_outline_ins">
<use xlink:href="#path0_fill" fill="white" transform="translate(1946 4702.11)"/>
</mask>
<g mask="url(#mask0_outline_ins)">
<use xlink:href="#path1_stroke_2x" transform="translate(1946 4702.11)" fill="#7C86A2"/>
</g>
</g>
<g id="-" figma:type="frame">
<g id="Line Copy 5" figma:type="vector">
<use xlink:href="#path2_stroke" transform="translate(1948.45 4705.3)" fill="#7C86A2"/>
</g>
</g>
<g id="path copy" figma:type="vector">
<mask id="mask1_outline_ins">
<use xlink:href="#path0_fill" fill="white" transform="translate(1953.11 4702.11)"/>
</mask>
<g mask="url(#mask1_outline_ins)">
<use xlink:href="#path1_stroke_2x" transform="translate(1953.11 4702.11)" fill="#7C86A2"/>
</g>
</g>
<g id="x" figma:type="frame">
<g id="Line Copy 5" figma:type="vector">
<use xlink:href="#path3_stroke" transform="translate(1955.93 4704.93)" fill="#7C86A2"/>
</g>
<g id="Line Copy 5" figma:type="vector">
<use xlink:href="#path4_stroke" transform="translate(1955.93 4704.93)" fill="#7C86A2"/>
</g>
</g>
<g id="path" figma:type="vector">
<mask id="mask2_outline_ins">
<use xlink:href="#path0_fill" fill="white" transform="translate(1946 4695)"/>
</mask>
<g mask="url(#mask2_outline_ins)">
<use xlink:href="#path1_stroke_2x" transform="translate(1946 4695)" fill="#7C86A2"/>
</g>
</g>
<g id="+" figma:type="frame">
<g id="Line Copy 5" figma:type="vector">
<use xlink:href="#path2_stroke" transform="translate(1948.45 4698.2)" fill="#7C86A2"/>
</g>
<g id="Line Copy 5" figma:type="vector">
<use xlink:href="#path5_stroke" transform="translate(1949.95 4697.45)" fill="#7C86A2"/>
</g>
</g>
<g id="path copy" figma:type="vector">
<mask id="mask3_outline_ins">
<use xlink:href="#path0_fill" fill="white" transform="translate(1953.11 4695)"/>
</mask>
<g mask="url(#mask3_outline_ins)">
<use xlink:href="#path1_stroke_2x" transform="translate(1953.11 4695)" fill="#7C86A2"/>
</g>
</g>
<g id="%" figma:type="frame">
<g id="Line Copy 5" figma:type="vector">
<use xlink:href="#path3_stroke" transform="translate(1955.99 4697.89)" fill="#7C86A2"/>
</g>
<g id="Oval 3" figma:type="vector">
<use xlink:href="#path6_fill" transform="translate(1957.8 4697.45)" fill="#7C86A2"/>
<use xlink:href="#path7_stroke" transform="translate(1957.8 4697.45)" fill="#7C86A2"/>
</g>
<g id="Oval 3" figma:type="vector">
<use xlink:href="#path6_fill" transform="translate(1955.55 4699.7)" fill="#7C86A2"/>
<use xlink:href="#path7_stroke" transform="translate(1955.55 4699.7)" fill="#7C86A2"/>
</g>
</g>
</g>
</g>
<defs>
<path id="path0_fill" fill-rule="evenodd" d="M 0 1C 0 0.447715 0.447715 0 1 0L 6.89474 0C 7.44702 0 7.89474 0.447715 7.89474 1L 7.89474 6.89474C 7.89474 7.44702 7.44702 7.89474 6.89474 7.89474L 1 7.89474C 0.447715 7.89474 0 7.44702 0 6.89474L 0 1Z"/>
<path id="path1_stroke_2x" d="M 1 1L 6.89474 1L 6.89474 -1L 1 -1L 1 1ZM 6.89474 1L 6.89474 6.89474L 8.89474 6.89474L 8.89474 1L 6.89474 1ZM 6.89474 6.89474L 1 6.89474L 1 8.89474L 6.89474 8.89474L 6.89474 6.89474ZM 1 6.89474L 1 1L -1 1L -1 6.89474L 1 6.89474ZM 1 -1C -0.10457 -1 -1 -0.10457 -1 1L 1 1L 1 -1ZM 6.89474 1L 8.89474 1C 8.89474 -0.10457 7.99931 -1 6.89474 -1L 6.89474 1ZM 6.89474 6.89474L 6.89474 8.89474C 7.99931 8.89474 8.89474 7.99931 8.89474 6.89474L 6.89474 6.89474ZM 1 6.89474L -1 6.89474C -1 7.99931 -0.10457 8.89474 1 8.89474L 1 6.89474Z"/>
<path id="path2_stroke" d="M 0 0.25C -0.276142 0.25 -0.5 0.473858 -0.5 0.75C -0.5 1.02614 -0.276142 1.25 0 1.25L 0 0.25ZM 3 1.25C 3.27614 1.25 3.5 1.02614 3.5 0.75C 3.5 0.473858 3.27614 0.25 3 0.25L 3 1.25ZM 0 1.25L 3 1.25L 3 0.25L 0 0.25L 0 1.25Z"/>
<path id="path3_stroke" d="M 0.353553 -0.353553C 0.158291 -0.548816 -0.158291 -0.548816 -0.353553 -0.353553C -0.548816 -0.158291 -0.548816 0.158291 -0.353553 0.353553L 0.353553 -0.353553ZM 1.76777 2.47487C 1.96303 2.67014 2.27961 2.67014 2.47487 2.47487C 2.67014 2.27961 2.67014 1.96303 2.47487 1.76777L 1.76777 2.47487ZM -0.353553 0.353553L 1.76777 2.47487L 2.47487 1.76777L 0.353553 -0.353553L -0.353553 0.353553Z"/>
<path id="path4_stroke" d="M 2.47487 0.353553C 2.67014 0.158291 2.67014 -0.158291 2.47487 -0.353553C 2.27961 -0.548816 1.96303 -0.548816 1.76777 -0.353553L 2.47487 0.353553ZM -0.353553 1.76777C -0.548816 1.96303 -0.548816 2.27961 -0.353553 2.47487C -0.158291 2.67014 0.158291 2.67014 0.353553 2.47487L -0.353553 1.76777ZM 1.76777 -0.353553L -0.353553 1.76777L 0.353553 2.47487L 2.47487 0.353553L 1.76777 -0.353553Z"/>
<path id="path5_stroke" d="M 0.5 1.11022e-16C 0.5 -0.276142 0.276142 -0.5 7.77156e-16 -0.5C -0.276142 -0.5 -0.5 -0.276142 -0.5 -1.11022e-16L 0.5 1.11022e-16ZM -0.5 3C -0.5 3.27614 -0.276142 3.5 -1.11022e-16 3.5C 0.276142 3.5 0.5 3.27614 0.5 3L -0.5 3ZM -0.5 -1.11022e-16L -0.5 3L 0.5 3L 0.5 1.11022e-16L -0.5 -1.11022e-16Z"/>
<path id="path6_fill" fill-rule="evenodd" d="M 0.375 0.75C 0.582107 0.75 0.75 0.582107 0.75 0.375C 0.75 0.167893 0.582107 0 0.375 0C 0.167893 0 0 0.167893 0 0.375C 0 0.582107 0.167893 0.75 0.375 0.75Z"/>
<path id="path7_stroke" d="M 0.375 1C 0.720178 1 1 0.720178 1 0.375L 0.5 0.375C 0.5 0.444036 0.444036 0.5 0.375 0.5L 0.375 1ZM 1 0.375C 1 0.029822 0.720178 -0.25 0.375 -0.25L 0.375 0.25C 0.444036 0.25 0.5 0.305964 0.5 0.375L 1 0.375ZM 0.375 -0.25C 0.029822 -0.25 -0.25 0.029822 -0.25 0.375L 0.25 0.375C 0.25 0.305964 0.305964 0.25 0.375 0.25L 0.375 -0.25ZM -0.25 0.375C -0.25 0.720178 0.029822 1 0.375 1L 0.375 0.5C 0.305964 0.5 0.25 0.444036 0.25 0.375L -0.25 0.375Z"/>
</defs>

</symbol>
<symbol id="requests" viewBox="0 0 17 17">
<title>Icon</title>
<desc>Created using Figma</desc>
<g id="Canvas" transform="translate(-1945 -4533)" figma:type="canvas">
<g id="Icon" figma:type="frame">
<g id="Oval 2" figma:type="vector">
<use xlink:href="#path0_stroke" transform="translate(1952.75 4540.75)" fill="#011B33"/>
</g>
<g id="Line" figma:type="vector">
<use xlink:href="#path1_stroke" transform="translate(1955.75 4542.25)" fill="#011B33"/>
</g>
<g id="Line" figma:type="vector">
<use xlink:href="#path2_stroke" transform="translate(1954.25 4543.75)" fill="#011B33"/>
</g>
<g id="Path 2" figma:type="vector">
<use xlink:href="#path3_stroke" transform="translate(1946.43 4534.34)" fill="#011B33"/>
</g>
<g id="Line" figma:type="vector">
<use xlink:href="#path4_stroke" transform="translate(1948.25 4537)" fill="#011B33"/>
</g>
<g id="Line Copy 3" figma:type="vector">
<use xlink:href="#path5_stroke" transform="translate(1948.62 4539.62)" fill="#011B33"/>
</g>
<g id="Line Copy 4" figma:type="vector">
<use xlink:href="#path6_stroke" transform="translate(1948.62 4541.86)" fill="#011B33"/>
</g>
<g id="Line Copy 5" figma:type="vector">
<use xlink:href="#path7_stroke" transform="translate(1948.25 4543.75)" fill="#011B33"/>
</g>
<g id="Path 3" figma:type="vector">
<use xlink:href="#path8_stroke" transform="translate(1953.15 4534.36)" fill="#011B33"/>
</g>
</g>
</g>
<defs>
<path id="path0_stroke" d="M 4.125 8.75C 6.67932 8.75 8.75 6.67932 8.75 4.125L 7.75 4.125C 7.75 6.12703 6.12703 7.75 4.125 7.75L 4.125 8.75ZM 8.75 4.125C 8.75 1.57068 6.67932 -0.5 4.125 -0.5L 4.125 0.5C 6.12703 0.5 7.75 2.12297 7.75 4.125L 8.75 4.125ZM 4.125 -0.5C 1.57068 -0.5 -0.5 1.57068 -0.5 4.125L 0.5 4.125C 0.5 2.12297 2.12297 0.5 4.125 0.5L 4.125 -0.5ZM -0.5 4.125C -0.5 6.67932 1.57068 8.75 4.125 8.75L 4.125 7.75C 2.12297 7.75 0.5 6.12703 0.5 4.125L -0.5 4.125Z"/>
<path id="path1_stroke" d="M 1.625 0.375C 1.625 0.0988576 1.40114 -0.125 1.125 -0.125C 0.848858 -0.125 0.625 0.0988576 0.625 0.375L 1.625 0.375ZM 0.625 4.875C 0.625 5.15114 0.848858 5.375 1.125 5.375C 1.40114 5.375 1.625 5.15114 1.625 4.875L 0.625 4.875ZM 0.625 0.375L 0.625 4.875L 1.625 4.875L 1.625 0.375L 0.625 0.375Z"/>
<path id="path2_stroke" d="M 0.375 0.625C 0.0988576 0.625 -0.125 0.848858 -0.125 1.125C -0.125 1.40114 0.0988576 1.625 0.375 1.625L 0.375 0.625ZM 4.875 1.625C 5.15114 1.625 5.375 1.40114 5.375 1.125C 5.375 0.848858 5.15114 0.625 4.875 0.625L 4.875 1.625ZM 0.375 1.625L 4.875 1.625L 4.875 0.625L 0.375 0.625L 0.375 1.625Z"/>
<path id="path3_stroke" d="M 6.69192 0.515718C 6.96807 0.516366 7.19245 0.293035 7.1931 0.0168935C 7.19375 -0.259248 6.97042 -0.483631 6.69427 -0.484279L 6.69192 0.515718ZM 0 0L 0.00117429 -0.499999C -0.13177 -0.500311 -0.259366 -0.447665 -0.35341 -0.353696C -0.447455 -0.259728 -0.500204 -0.132175 -0.499999 0.000769775L 0 0ZM 0.0219729 14.2723L -0.478027 14.273C -0.477604 14.5475 -0.255953 14.7704 0.0185459 14.7723L 0.0219729 14.2723ZM 5.29131 14.8084C 5.56745 14.8103 5.79284 14.588 5.79473 14.3118C 5.79662 14.0357 5.5743 13.8103 5.29817 13.8084L 5.29131 14.8084ZM 6.69427 -0.484279L 0.00117429 -0.499999L -0.00117429 0.499999L 6.69192 0.515718L 6.69427 -0.484279ZM -0.499999 0.000769775L -0.478027 14.273L 0.521972 14.2715L 0.499999 -0.000769775L -0.499999 0.000769775ZM 0.0185459 14.7723L 5.29131 14.8084L 5.29817 13.8084L 0.0253999 13.7723L 0.0185459 14.7723Z"/>
<path id="path4_stroke" d="M 0.375 0.625C 0.0988576 0.625 -0.125 0.848858 -0.125 1.125C -0.125 1.40114 0.0988576 1.625 0.375 1.625L 0.375 0.625ZM 2.625 1.625C 2.90114 1.625 3.125 1.40114 3.125 1.125C 3.125 0.848858 2.90114 0.625 2.625 0.625L 2.625 1.625ZM 0.375 1.625L 2.625 1.625L 2.625 0.625L 0.375 0.625L 0.375 1.625Z"/>
<path id="path5_stroke" d="M -0.000294984 0.252436C -0.276437 0.252599 -0.500163 0.476588 -0.5 0.752731C -0.499837 1.02887 -0.275847 1.2526 0.000294984 1.25244L -0.000294984 0.252436ZM 4.1287 1.25C 4.40484 1.24984 4.62857 1.02585 4.6284 0.749705C 4.62824 0.473563 4.40425 0.249837 4.12811 0.25L 4.1287 1.25ZM 0.000294984 1.25244L 4.1287 1.25L 4.12811 0.25L -0.000294984 0.252436L 0.000294984 1.25244Z"/>
<path id="path6_stroke" d="M -0.00208009 0.260936C -0.27822 0.262084 -0.501144 0.486871 -0.499996 0.763011C -0.498847 1.03915 -0.27406 1.26208 0.00208009 1.26093L -0.00208009 0.260936ZM 2.62967 1.25C 2.90581 1.24885 3.12873 1.02406 3.12758 0.74792C 3.12643 0.47178 2.90165 0.248856 2.62551 0.250004L 2.62967 1.25ZM 0.00208009 1.26093L 2.62967 1.25L 2.62551 0.250004L -0.00208009 0.260936L 0.00208009 1.26093Z"/>
<path id="path7_stroke" d="M 0.375 0.625C 0.0988576 0.625 -0.125 0.848858 -0.125 1.125C -0.125 1.40114 0.0988576 1.625 0.375 1.625L 0.375 0.625ZM 1.875 1.625C 2.15114 1.625 2.375 1.40114 2.375 1.125C 2.375 0.848858 2.15114 0.625 1.875 0.625L 1.875 1.625ZM 0.375 1.625L 1.875 1.625L 1.875 0.625L 0.375 0.625L 0.375 1.625Z"/>
<path id="path8_stroke" d="M 0.018366 3.3539L -0.481627 3.35664C -0.48012 3.6317 -0.256708 3.8539 0.018366 3.8539L 0.018366 3.3539ZM 0 0L 0.334012 -0.37207C 0.186794 -0.50423 -0.0245053 -0.537158 -0.204957 -0.456062C -0.385409 -0.374966 -0.501076 -0.195096 -0.499992 0.00273797L 0 0ZM 3.73604 3.3539L 3.73604 3.8539C 3.94318 3.8539 4.12887 3.72617 4.20296 3.53273C 4.27705 3.3393 4.22419 3.1202 4.07005 2.98183L 3.73604 3.3539ZM 3.07658 2.8539L 0.018366 2.8539L 0.018366 3.8539L 3.07658 3.8539L 3.07658 2.8539ZM 0.518359 3.35116L 0.499992 -0.00273797L -0.499992 0.00273797L -0.481627 3.35664L 0.518359 3.35116ZM -0.334012 0.37207L 3.40203 3.72597L 4.07005 2.98183L 0.334012 -0.37207L -0.334012 0.37207ZM 3.73604 2.8539L 3.07658 2.8539L 3.07658 3.8539L 3.73604 3.8539L 3.73604 2.8539Z"/>
</defs>

</symbol>
<symbol id="settings" viewBox="0 0 17 17">
<title>icon</title>
<desc>Created using Figma</desc>
<g id="Canvas" transform="translate(-1945 -4774)" figma:type="canvas">
<g id="icon" figma:type="frame">
<g id="Fill 1" figma:type="vector-operation">
<use xlink:href="#path0_stroke" transform="translate(1946 4775)" fill="#7C86A2"/>
</g>
</g>
</g>
<defs>
<path id="path0_stroke" d="M 1.62158 8.66797L 2.11212 8.57116L 2.03255 8.16797L 1.62158 8.16797L 1.62158 8.66797ZM 1.62158 6.32666L 1.62158 6.82666L 2.032 6.82666L 2.11199 6.42411L 1.62158 6.32666ZM 2.51294 4.17334L 2.92782 4.4524L 3.15762 4.11076L 2.8664 3.81969L 2.51294 4.17334ZM 1.81531 3.47607L 1.46167 3.82954L 1.46185 3.82972L 1.81531 3.47607ZM 1.81531 2.57373L 1.46178 2.22015L 1.46167 2.22026L 1.81531 2.57373ZM 2.57373 1.81543L 2.22026 1.46179L 2.22021 1.46185L 2.57373 1.81543ZM 3.47583 1.81543L 3.83087 1.46337L 3.82947 1.46196L 3.47583 1.81543ZM 4.16772 2.51318L 3.81268 2.86524L 4.10195 3.15696L 4.44423 2.92977L 4.16772 2.51318ZM 6.32092 1.62158L 6.41784 2.1121L 6.82092 2.03246L 6.82092 1.62158L 6.32092 1.62158ZM 8.66797 1.62158L 8.16797 1.62158L 8.16797 2.03189L 8.57038 2.11197L 8.66797 1.62158ZM 10.8209 2.51318L 10.5417 2.92794L 10.8833 3.15797L 11.1745 2.86668L 10.8209 2.51318ZM 11.5184 1.81543L 11.872 2.16892L 11.8721 2.1689L 11.5184 1.81543ZM 12.4207 1.81543L 12.0672 2.16907L 12.0684 2.17023L 12.4207 1.81543ZM 13.1843 2.57373L 13.5377 2.22L 13.5366 2.21893L 13.1843 2.57373ZM 13.1843 3.47607L 12.8309 3.12235L 12.8308 3.12252L 13.1843 3.47607ZM 12.4871 4.17334L 12.1335 3.81979L 11.8442 4.10906L 12.0705 4.44989L 12.4871 4.17334ZM 13.3782 6.32666L 12.8876 6.42333L 12.9671 6.82666L 13.3782 6.82666L 13.3782 6.32666ZM 13.3782 8.66797L 13.3782 8.16797L 12.9677 8.16797L 12.8877 8.5706L 13.3782 8.66797ZM 12.4871 10.8208L 12.0721 10.5419L 11.8426 10.8832L 12.1334 11.1742L 12.4871 10.8208ZM 13.1843 11.5186L 12.8306 11.872L 12.8309 11.8723L 13.1843 11.5186ZM 13.1843 12.4209L 13.5379 12.7745L 13.5381 12.7743L 13.1843 12.4209ZM 12.426 13.1792L 12.7793 13.533L 12.7796 13.5328L 12.426 13.1792ZM 11.5238 13.1792L 11.1701 13.5326L 11.1708 13.5333L 11.5238 13.1792ZM 10.8265 12.4814L 11.1802 12.128L 10.8909 11.8385L 10.55 12.0649L 10.8265 12.4814ZM 8.67334 13.3726L 8.57672 12.882L 8.17334 12.9614L 8.17334 13.3726L 8.67334 13.3726ZM 6.32642 13.3726L 6.82642 13.3726L 6.82642 12.962L 6.42371 12.8821L 6.32642 13.3726ZM 4.17346 12.4814L 4.4527 12.0667L 4.11107 11.8367L 3.81988 12.1279L 4.17346 12.4814ZM 3.47583 13.1792L 3.82912 13.533L 3.82941 13.5327L 3.47583 13.1792ZM 2.57373 13.1792L 2.22021 13.5328L 2.22061 13.5332L 2.57373 13.1792ZM 1.81531 12.4209L 1.46132 12.774L 1.46178 12.7745L 1.81531 12.4209ZM 1.81531 11.5186L 1.46172 11.165L 1.46167 11.1651L 1.81531 11.5186ZM 2.51294 10.8208L 2.86652 11.1743L 3.15575 10.885L 2.9295 10.5443L 2.51294 10.8208ZM 0.636475 9.16797L 1.62158 9.16797L 1.62158 8.16797L 0.636475 8.16797L 0.636475 9.16797ZM -0.5 8.03711C -0.5 8.66471 0.00879383 9.16797 0.636475 9.16797L 0.636475 8.16797C 0.555415 8.16797 0.5 8.10678 0.5 8.03711L -0.5 8.03711ZM -0.5 6.96338L -0.5 8.03711L 0.5 8.03711L 0.5 6.96338L -0.5 6.96338ZM 0.636475 5.82666C 0.00303155 5.82666 -0.5 6.34105 -0.5 6.96338L 0.5 6.96338C 0.5 6.88746 0.561177 6.82666 0.636475 6.82666L 0.636475 5.82666ZM 1.62158 5.82666L 0.636475 5.82666L 0.636475 6.82666L 1.62158 6.82666L 1.62158 5.82666ZM 2.09806 3.89428C 1.6407 4.57861 1.2984 5.40031 1.13117 6.22921L 2.11199 6.42411C 2.25507 5.69148 2.52141 5.05225 2.92782 4.4524L 2.09806 3.89428ZM 1.46185 3.82972L 2.15948 4.52699L 2.8664 3.81969L 2.16877 3.12243L 1.46185 3.82972ZM 1.46167 2.22026C 1.01762 2.66453 1.01762 3.38528 1.46167 3.82954L 2.16895 3.12261C 2.11519 3.06883 2.11519 2.98098 2.16895 2.9272L 1.46167 2.22026ZM 2.22021 1.46185L 1.46178 2.22015L 2.16883 2.92731L 2.92726 2.16901L 2.22021 1.46185ZM 3.82947 1.46196C 3.38519 1.01747 2.66456 1.01772 2.22026 1.46179L 2.9272 2.16907C 2.9812 2.1151 3.06867 2.11535 3.12219 2.1689L 3.82947 1.46196ZM 4.52277 2.16112L 3.83087 1.46337L 3.12079 2.16749L 3.81268 2.86524L 4.52277 2.16112ZM 6.22401 1.13106C 5.38748 1.29912 4.57241 1.64694 3.89122 2.0966L 4.44423 2.92977C 5.04747 2.52689 5.68259 2.25459 6.41784 2.1121L 6.22401 1.13106ZM 5.82092 0.63623L 5.82092 1.62158L 6.82092 1.62158L 6.82092 0.63623L 5.82092 0.63623ZM 6.9574 -0.5C 6.32439 -0.5 5.82092 0.0140823 5.82092 0.63623L 6.82092 0.63623C 6.82092 0.561113 6.88191 0.5 6.9574 0.5L 6.9574 -0.5ZM 8.03125 -0.5L 6.9574 -0.5L 6.9574 0.5L 8.03125 0.5L 8.03125 -0.5ZM 9.16797 0.63623C 9.16797 0.00296708 8.65314 -0.5 8.03125 -0.5L 8.03125 0.5C 8.10711 0.5 8.16797 0.561486 8.16797 0.63623L 9.16797 0.63623ZM 9.16797 1.62158L 9.16797 0.63623L 8.16797 0.63623L 8.16797 1.62158L 9.16797 1.62158ZM 11.1002 2.09842C 10.4159 1.64071 9.59382 1.29852 8.76555 1.1312L 8.57038 2.11197C 9.30267 2.25519 9.94223 2.5214 10.5417 2.92794L 11.1002 2.09842ZM 11.1648 1.46194L 10.4673 2.15969L 11.1745 2.86668L 11.872 2.16892L 11.1648 1.46194ZM 12.7741 1.46179C 12.3298 1.01772 11.6091 1.01747 11.1648 1.46196L 11.8721 2.1689C 11.9256 2.11535 12.0132 2.1151 12.0672 2.16907L 12.7741 1.46179ZM 13.5366 2.21893L 12.773 1.46063L 12.0684 2.17023L 12.832 2.92853L 13.5366 2.21893ZM 13.5377 3.8298C 13.9825 3.38548 13.9825 2.66433 13.5377 2.22L 12.8309 2.92746C 12.8847 2.98118 12.8847 3.06863 12.8309 3.12235L 13.5377 3.8298ZM 12.8406 4.52689L 13.5379 3.82963L 12.8308 3.12252L 12.1335 3.81979L 12.8406 4.52689ZM 13.8687 6.22999C 13.701 5.39313 13.3533 4.57791 12.9036 3.89679L 12.0705 4.44989C 12.4733 5.05295 12.7455 5.68793 12.8876 6.42333L 13.8687 6.22999ZM 14.3633 5.82666L 13.3782 5.82666L 13.3782 6.82666L 14.3633 6.82666L 14.3633 5.82666ZM 15.5 6.96338C 15.5 6.32988 14.9854 5.82666 14.3633 5.82666L 14.3633 6.82666C 14.4389 6.82666 14.5 6.8879 14.5 6.96338L 15.5 6.96338ZM 15.5 8.03125L 15.5 6.96338L 14.5 6.96338L 14.5 8.03125L 15.5 8.03125ZM 14.3633 9.16797C 14.9965 9.16797 15.5 8.65315 15.5 8.03125L 14.5 8.03125C 14.5 8.10662 14.4385 8.16797 14.3633 8.16797L 14.3633 9.16797ZM 13.3782 9.16797L 14.3633 9.16797L 14.3633 8.16797L 13.3782 8.16797L 13.3782 9.16797ZM 12.902 11.0998C 13.3591 10.4155 13.7016 9.59385 13.8686 8.76533L 12.8877 8.5706C 12.7449 9.30263 12.4783 9.94188 12.0721 10.5419L 12.902 11.0998ZM 13.538 11.1651L 12.8407 10.4674L 12.1334 11.1742L 12.8306 11.872L 13.538 11.1651ZM 13.5381 12.7743C 13.9822 12.3297 13.9827 11.6093 13.5377 11.1648L 12.8309 11.8723C 12.8845 11.9258 12.885 12.013 12.8306 12.0675L 13.5381 12.7743ZM 12.7796 13.5328L 13.5379 12.7745L 12.8308 12.0673L 12.0725 12.8256L 12.7796 13.5328ZM 11.1708 13.5333C 11.615 13.9762 12.3351 13.9766 12.7793 13.533L 12.0727 12.8254C 12.0192 12.8789 11.9311 12.8792 11.8768 12.8251L 11.1708 13.5333ZM 10.4729 12.8349L 11.1701 13.5326L 11.8775 12.8258L 11.1802 12.128L 10.4729 12.8349ZM 8.76996 13.8631C 9.60663 13.6956 10.422 13.3477 11.1031 12.898L 10.55 12.0649C 9.94691 12.4677 9.31183 12.74 8.57672 12.882L 8.76996 13.8631ZM 9.17334 14.3579L 9.17334 13.3726L 8.17334 13.3726L 8.17334 14.3579L 9.17334 14.3579ZM 8.03687 15.4946C 8.67056 15.4946 9.17334 14.9795 9.17334 14.3579L 8.17334 14.3579C 8.17334 14.4336 8.11191 14.4946 8.03687 14.4946L 8.03687 15.4946ZM 6.96313 15.4946L 8.03687 15.4946L 8.03687 14.4946L 6.96313 14.4946L 6.96313 15.4946ZM 5.82642 14.3579C 5.82642 14.9914 6.34081 15.4946 6.96313 15.4946L 6.96313 14.4946C 6.88746 14.4946 6.82642 14.4335 6.82642 14.3579L 5.82642 14.3579ZM 5.82642 13.3726L 5.82642 14.3579L 6.82642 14.3579L 6.82642 13.3726L 5.82642 13.3726ZM 3.89422 12.8962C 4.57846 13.3539 5.40071 13.6962 6.22913 13.863L 6.42371 12.8821C 5.69157 12.7394 5.05216 12.4732 4.4527 12.0667L 3.89422 12.8962ZM 3.82941 13.5327L 4.52705 12.835L 3.81988 12.1279L 3.12225 12.8257L 3.82941 13.5327ZM 2.22061 13.5332C 2.66482 13.9763 3.38492 13.9766 3.82912 13.533L 3.12254 12.8254C 3.06893 12.8789 2.98093 12.8792 2.92685 12.8252L 2.22061 13.5332ZM 1.46178 12.7745L 2.22021 13.5328L 2.92726 12.8256L 2.16883 12.0673L 1.46178 12.7745ZM 1.46167 11.1651C 1.01743 11.6095 1.01793 12.3295 1.46132 12.774L 2.16929 12.0678C 2.11489 12.0132 2.11538 11.9256 2.16895 11.872L 1.46167 11.1651ZM 2.15936 10.4673L 1.46172 11.165L 2.16889 11.8721L 2.86652 11.1743L 2.15936 10.4673ZM 1.13104 8.76478C 1.29899 9.60163 1.64672 10.4163 2.09638 11.0973L 2.9295 10.5443C 2.52662 9.94114 2.25447 9.30657 2.11212 8.57116L 1.13104 8.76478ZM 7.49451 5.28223C 8.71831 5.28223 9.71204 6.27608 9.71204 7.5L 10.712 7.5C 10.712 5.72392 9.27071 4.28223 7.49451 4.28223L 7.49451 5.28223ZM 5.27673 7.5C 5.27673 6.27614 6.27065 5.28223 7.49451 5.28223L 7.49451 4.28223C 5.71836 4.28223 4.27673 5.72386 4.27673 7.5L 5.27673 7.5ZM 7.49451 9.71777C 6.27065 9.71777 5.27673 8.72386 5.27673 7.5L 4.27673 7.5C 4.27673 9.27614 5.71836 10.7178 7.49451 10.7178L 7.49451 9.71777ZM 9.71204 7.5C 9.71204 8.72392 8.71831 9.71777 7.49451 9.71777L 7.49451 10.7178C 9.27071 10.7178 10.712 9.27608 10.712 7.5L 9.71204 7.5Z"/>
</defs>

</symbol>
<symbol id="sign-out" viewBox="0 0 15 13">
<title>sign-out-option</title>
<desc>Created using Figma</desc>
<g id="Canvas" transform="translate(-1946 -5067)" figma:type="canvas">
<g id="sign-out-option" figma:type="frame">
<g id="Fill 1" figma:type="vector">
<use xlink:href="#path0_fill" transform="translate(1946 5067.09)" fill="#FFFFFF"/>
</g>
<g id="Fill 2" figma:type="vector">
<use xlink:href="#path1_fill" transform="translate(1949.64 5067.41)" fill="#FFFFFF"/>
</g>
</g>
</g>
<defs>
<path id="path0_fill" fill-rule="evenodd" d="M 6.075 11.8028C 6.05621 11.7496 6.04937 11.7041 6.05563 11.6677C 6.06248 11.6313 6.04034 11.6014 5.98966 11.5781C 5.9384 11.5549 5.91335 11.5364 5.91335 11.5232C 5.91335 11.51 5.87694 11.4998 5.80413 11.4932C 5.73131 11.4866 5.6949 11.4837 5.6949 11.4837L 2.7335 11.4837C 2.31583 11.4837 1.95859 11.3271 1.66107 11.0148C 1.36354 10.7024 1.21515 10.327 1.21515 9.88857L 1.21515 2.87071C 1.21515 2.43207 1.36354 2.05691 1.66107 1.74445C 1.95859 1.43199 2.31583 1.27553 2.7335 1.27553L 5.77121 1.27553C 5.85306 1.27553 5.91801 1.25458 5.96578 1.21099C 6.01296 1.16801 6.04485 1.10286 6.06015 1.01675C 6.07617 0.930188 6.08578 0.851882 6.08913 0.7826C 6.09204 0.712706 6.09087 0.624918 6.08403 0.518624C 6.07777 0.412176 6.075 0.345341 6.075 0.319035C 6.075 0.232471 6.04485 0.157682 5.98456 0.0943647C 5.92427 0.0316588 5.85306 0 5.77121 0L 2.7335 0C 1.98087 0 1.33689 0.2808 0.802136 0.8424C 0.267379 1.404 0 2.08031 0 2.87071L 0 9.88857C 0 10.6796 0.267379 11.3553 0.802136 11.9169C 1.33689 12.4791 1.98087 12.7599 2.7335 12.7599L 5.77121 12.7599C 5.85364 12.7599 5.91801 12.7377 5.96578 12.6947C 6.01296 12.6518 6.04485 12.5866 6.06073 12.5005C 6.07675 12.4139 6.08578 12.3356 6.08913 12.2663C 6.09204 12.1964 6.09087 12.1087 6.08403 12.0024C 6.07777 11.8959 6.075 11.8291 6.075 11.8028Z"/>
<path id="path1_fill" fill-rule="evenodd" d="M 11.0583 5.61218L 5.89471 0.189341C 5.77471 0.0633176 5.63243 0 5.46743 0C 5.30301 0 5.16087 0.0633176 5.04029 0.189341C 4.92015 0.315365 4.85985 0.4654 4.85985 0.638071L 4.85985 3.50862L 0.607573 3.50862C 0.443155 3.50862 0.301019 3.57194 0.180437 3.69812C 0.0602913 3.82475 0 3.97402 0 4.14669L 0 7.97496C 0 8.14764 0.0602913 8.29706 0.180437 8.42308C 0.301019 8.54972 0.443155 8.61304 0.607573 8.61304L 4.85985 8.61304L 4.85985 11.4837C 4.85985 11.6564 4.92015 11.8063 5.04029 11.9323C 5.16087 12.0585 5.30301 12.1218 5.46743 12.1218C 5.63243 12.1218 5.77471 12.0585 5.89471 11.9323L 11.0583 6.50948C 11.1789 6.38346 11.2386 6.23358 11.2386 6.06091C 11.2386 5.88824 11.1789 5.7382 11.0583 5.61218Z"/>
</defs>

</symbol></svg>