<?xml version="1.0" encoding="utf-8"?><svg width="52" height="33" viewBox="0 0 52 33" xmlns="http://www.w3.org/2000/svg" xmlns:xlink="http://www.w3.org/1999/xlink"><svg width="20" height="16" viewBox="0 0 20 16" xmlns:figma="http://www.figma.com/figma/ns" id="beneficiary"><title>user</title><desc>Created using Figma</desc><g figma:type="frame" fill="#7C86A2" transform="translate(-1945 -4614)"><g figma:type="vector" transform="translate(1957.22 4617.99)"><use xlink:href="#aa"/><use xlink:href="#ab"/></g><g figma:type="vector-operation" transform="translate(1946 4615.02)"><use xlink:href="#ac"/><use xlink:href="#ad"/></g></g><defs><path id="aa" fill-rule="evenodd" d="M6.778 8.145a15.378 15.378 0 0 0-2.6-1.721V4.933c.241-.234.38-.556.38-.9V2.111C4.559.947 3.629 0 2.484 0h-.407C.93 0 0 .947 0 2.112v1.92c0 .345.14.667.38.9v.335c0 .21.166.38.374.38a.375.375 0 0 0 .372-.38v-.514a.382.382 0 0 0-.165-.315.486.486 0 0 1-.215-.406v-1.92c0-.744.595-1.353 1.33-1.353h.407c.73 0 1.33.605 1.33 1.353v1.92c0 .165-.08.314-.215.406a.373.373 0 0 0-.166.315v1.855a.47.47 0 0 0 .257.418c.237.118 1.473.755 2.614 1.705.125.104.196.26.196.426v1.318c0 .21.166.38.373.38a.375.375 0 0 0 .373-.38V9.157c0-.395-.17-.763-.467-1.012z"/><path id="ab" d="M6.778 8.145l.16-.192-.16.192zm-2.6-1.721h-.25v.151l.135.07.115-.221zm0-1.491l-.174-.18-.076.074v.106h.25zm-3.798 0h.25v-.106l-.075-.073-.175.179zm.58-.495l-.14.207.14-.207zm2.638 0l.137.21.003-.003-.14-.207zm.09 2.588l.112-.224-.111.224zM6.304 8.73l-.16.192.16-.192zm.635-.778a15.764 15.764 0 0 0-2.644-1.75l-.231.442c.445.233 1.537.84 2.555 1.692l.32-.384zm-2.51-1.53v-1.49h-.5v1.49h.5zm-.076-1.31c.29-.281.457-.668.457-1.08h-.5c0 .276-.112.533-.305.72l.348.36zm.457-1.08V2.111h-.5v1.92h.5zm0-1.921C4.809.812 3.77-.25 2.483-.25v.5c1.003 0 1.826.83 1.826 1.862h.5zM2.483-.25h-.407v.5h.407v-.5zm-.407 0C.789-.25-.25.813-.25 2.112h.5C.25 1.08 1.073.25 2.076.25v-.5zM-.25 2.112v1.92h.5v-1.92h-.5zm0 1.92c0 .413.167.8.456 1.08l.349-.358a1.002 1.002 0 0 1-.305-.722h-.5zm.38.9v.335h.5v-.334h-.5zm0 .335c0 .345.274.63.624.63v-.5a.125.125 0 0 1-.124-.13h-.5zm.624.63c.349 0 .622-.286.622-.63h-.5c0 .076-.057.13-.122.13v.5zm.622-.63v-.514h-.5v.514h.5zm0-.514a.632.632 0 0 0-.275-.522l-.28.415a.132.132 0 0 1 .055.107h.5zm-.275-.521a.236.236 0 0 1-.105-.2h-.5c0 .248.12.475.324.613l.281-.413zm-.105-.2v-1.92h-.5v1.92h.5zm0-1.92c0-.61.488-1.103 1.08-1.103v-.5c-.877 0-1.58.726-1.58 1.603h.5zm1.08-1.103h.407v-.5h-.407v.5zm.407 0c.59 0 1.08.49 1.08 1.103h.5c0-.882-.708-1.603-1.58-1.603v.5zm1.08 1.103v1.92h.5v-1.92h-.5zm0 1.92a.236.236 0 0 1-.105.2l.28.413a.736.736 0 0 0 .325-.613h-.5zm-.102.197a.623.623 0 0 0-.279.524h.5c0-.048.023-.086.053-.105l-.274-.419zm-.279.524v1.855h.5V4.753h-.5zm0 1.855c0 .27.154.522.395.642l.223-.448a.22.22 0 0 1-.118-.194h-.5zm.395.641c.236.118 1.447.74 2.566 1.674l.32-.384A15.116 15.116 0 0 0 3.8 6.802l-.223.447zm2.566 1.674c.065.054.106.14.106.234h.5a.804.804 0 0 0-.286-.618l-.32.384zm.106.234v1.318h.5V9.157h-.5zm0 1.318c0 .345.274.63.623.63v-.5a.125.125 0 0 1-.123-.13h-.5zm.623.63c.35 0 .623-.285.623-.63h-.5c0 .077-.058.13-.123.13v.5zm.623-.63V9.157h-.5v1.318h.5zm0-1.318c0-.467-.2-.906-.557-1.204l-.32.384c.24.2.377.497.377.82h.5z"/><path id="ac" fill-rule="evenodd" d="M6.05 0h.528c1.42 0 2.577 1.173 2.577 2.618v2.491c0 .433-.18.836-.493 1.12v2.046c.531.272 2.02 1.085 3.406 2.242.362.3.569.748.569 1.223v1.706c0 .21-.166.38-.373.38H.373a.375.375 0 0 1-.373-.38V11.74c0-.48.207-.924.562-1.223C1.948 9.36 3.436 8.551 3.967 8.275V6.229a1.511 1.511 0 0 1-.493-1.12V2.622C3.474 1.177 4.63 0 6.05 0zm5.543 11.1c-1.484-1.242-3.097-2.07-3.406-2.223a.479.479 0 0 1-.267-.441V6.037c0-.126.06-.245.165-.314a.736.736 0 0 0 .328-.618V2.618c0-1.027-.821-1.863-1.83-1.863h-.528c-1.01 0-1.831.836-1.831 1.863V5.11c0 .25.124.48.327.618a.382.382 0 0 1 .166.314V8.44a.493.493 0 0 1-.271.44c-.31.154-1.918.982-3.406 2.224a.827.827 0 0 0-.294.636v1.322h11.14v-1.326a.826.826 0 0 0-.293-.636z"/><path id="ad" d="M8.662 6.229l-.168-.186-.082.075v.11h.25zm0 2.046h-.25v.153l.136.07.114-.223zm3.406 2.242l-.16.192.16-.192zm-11.506 0l-.16-.192-.002.001.162.191zm3.405-2.242l.116.222.134-.07v-.152h-.25zm0-2.046h.25v-.111l-.082-.075-.168.186zm4.22 2.648l.111-.224-.002-.001-.109.225zm3.406 2.223l-.16.192.16-.192zM7.92 8.436l.25.005v-.005h-.25zm.165-2.713l.137.209.002-.001-.139-.208zm-3.534.004l-.14.206.14-.206zM4.446 8.88l.11.224.003-.001-.113-.223zM1.04 11.104l.16.192-.16-.192zm-.294 1.959h-.25v.25h.25v-.25zm11.14 0v.25h.25v-.25h-.25zM6.579-.25h-.527v.5h.527v-.5zm2.827 2.868c0-1.58-1.265-2.868-2.827-2.868v.5c1.28 0 2.327 1.057 2.327 2.368h.5zm0 2.491V2.618h-.5v2.491h.5zM8.83 6.414c.365-.331.575-.8.575-1.305h-.5c0 .363-.15.698-.411.934l.336.37zm.082 1.86V6.23h-.5v2.046h.5zm3.316 2.051C10.822 9.153 9.31 8.326 8.776 8.052l-.228.445c.528.271 1.993 1.07 3.36 2.212l.32-.384zm.659 1.415c0-.548-.24-1.068-.66-1.415l-.319.385c.303.25.479.627.479 1.03h.5zm0 1.706V11.74h-.5v1.706h.5zm-.623.63c.35 0 .623-.286.623-.63h-.5c0 .076-.058.13-.123.13v.5zm-11.891 0h11.89v-.5H.374v.5zm-.623-.63c0 .344.274.63.623.63v-.5a.125.125 0 0 1-.123-.13h-.5zm0-1.706v1.706h.5V11.74h-.5zm.65-1.414c-.411.348-.65.862-.65 1.414h.5c0-.407.175-.78.473-1.032L.4 10.326zm3.452-2.273c-.533.278-2.045 1.1-3.45 2.272l.32.384c1.366-1.142 2.832-1.937 3.36-2.212l-.23-.444zM3.717 6.23v2.046h.5V6.229h-.5zm-.493-1.12c0 .5.21.973.575 1.305l.336-.37a1.261 1.261 0 0 1-.411-.935h-.5zm0-2.487v2.487h.5V2.622h-.5zM6.05-.25c-1.563 0-2.827 1.293-2.827 2.872h.5C3.724 1.31 4.773.25 6.05.25v-.5zM8.076 9.1c.307.153 1.894.967 3.357 2.192l.32-.384c-1.506-1.258-3.144-2.1-3.455-2.255l-.222.448zm-.406-.669a.729.729 0 0 0 .408.671l.218-.45a.229.229 0 0 1-.126-.21l-.5-.011zm0-2.394v2.399h.5V6.037h-.5zm.279-.524a.623.623 0 0 0-.28.524h.5c0-.048.023-.085.053-.105l-.273-.419zm.214-.408c0 .168-.08.319-.216.41l.277.416a.986.986 0 0 0 .44-.826h-.5zm0-2.487v2.487h.5V2.618h-.5zm-1.58-1.613c.867 0 1.58.72 1.58 1.613h.5c0-1.161-.93-2.113-2.08-2.113v.5zm-.528 0h.527v-.5h-.527v.5zM4.474 2.618c0-.893.713-1.613 1.58-1.613v-.5c-1.151 0-2.08.952-2.08 2.113h.5zm0 2.491V2.62h-.5v2.49h.5zm.218.41a.496.496 0 0 1-.218-.41h-.5c0 .333.166.64.437.824l.28-.413zm.275.522a.632.632 0 0 0-.275-.521l-.28.414a.132.132 0 0 1 .055.107h.5zm0 2.399v-2.4h-.5v2.4h.5zm-.408.664a.743.743 0 0 0 .408-.664h-.5a.243.243 0 0 1-.134.218l.226.446zM1.2 11.296a18.572 18.572 0 0 1 3.357-2.191l-.222-.448c-.311.154-1.945.997-3.455 2.255l.32.384zm-.204.444c0-.176.078-.339.204-.444l-.32-.384a1.077 1.077 0 0 0-.384.828h.5zm0 1.322V11.74h-.5v1.322h.5zm10.89-.25H.747v.5h11.14v-.5zm-.25-1.076v1.326h.5v-1.326h-.5zm-.203-.444c.13.108.204.27.204.444h.5c0-.316-.136-.621-.384-.828l-.32.384z"/></defs></svg><svg width="15" height="15" viewBox="0 0 15 15" xmlns:figma="http://www.figma.com/figma/ns" id="report" x="20" y="17"><title>Icon</title><desc>Created using Figma</desc><g figma:type="frame" transform="translate(-1946 -4695)"><g figma:type="vector"><mask id="bb"><use xlink:href="#ba" fill="#fff" transform="translate(1946 4702.11)"/></mask><g mask="url(#bb)"><use xlink:href="#bc" transform="translate(1946 4702.11)" fill="#7C86A2"/></g></g><use xlink:href="#bd" transform="translate(1948.45 4705.3)" fill="#7C86A2" figma:type="vector"/><g figma:type="vector"><mask id="be"><use xlink:href="#ba" fill="#fff" transform="translate(1953.11 4702.11)"/></mask><g mask="url(#be)"><use xlink:href="#bc" transform="translate(1953.11 4702.11)" fill="#7C86A2"/></g></g><g figma:type="frame"><use xlink:href="#bf" transform="translate(1955.93 4704.93)" fill="#7C86A2" figma:type="vector"/><use xlink:href="#bg" transform="translate(1955.93 4704.93)" fill="#7C86A2" figma:type="vector"/></g><g figma:type="vector"><mask id="bh"><use xlink:href="#ba" fill="#fff" transform="translate(1946 4695)"/></mask><g mask="url(#bh)"><use xlink:href="#bc" transform="translate(1946 4695)" fill="#7C86A2"/></g></g><g figma:type="frame"><use xlink:href="#bd" transform="translate(1948.45 4698.2)" fill="#7C86A2" figma:type="vector"/><use xlink:href="#bi" transform="translate(1949.95 4697.45)" fill="#7C86A2" figma:type="vector"/></g><g figma:type="vector"><mask id="bj"><use xlink:href="#ba" fill="#fff" transform="translate(1953.11 4695)"/></mask><g mask="url(#bj)"><use xlink:href="#bc" transform="translate(1953.11 4695)" fill="#7C86A2"/></g></g><g figma:type="frame"><use xlink:href="#bf" transform="translate(1955.99 4697.89)" fill="#7C86A2" figma:type="vector"/><g figma:type="vector" transform="translate(1957.8 4697.45)" fill="#7C86A2"><use xlink:href="#bk"/><use xlink:href="#bl"/></g><g figma:type="vector" transform="translate(1955.55 4699.7)" fill="#7C86A2"><use xlink:href="#bk"/><use xlink:href="#bl"/></g></g></g><defs><path id="ba" fill-rule="evenodd" d="M0 1a1 1 0 0 1 1-1h5.895a1 1 0 0 1 1 1v5.895a1 1 0 0 1-1 1H1a1 1 0 0 1-1-1V1z"/><path id="bc" d="M1 1h5.895v-2H1v2zm5.895 0v5.895h2V1h-2zm0 5.895H1v2h5.895v-2zM1 6.895V1h-2v5.895h2zM1-1a2 2 0 0 0-2 2h2v-2zm5.895 2h2a2 2 0 0 0-2-2v2zm0 5.895v2a2 2 0 0 0 2-2h-2zM1 6.895h-2a2 2 0 0 0 2 2v-2z"/><path id="bd" d="M0 .25a.5.5 0 0 0 0 1v-1zm3 1a.5.5 0 0 0 0-1v1zm-3 0h3v-1H0v1z"/><path id="bf" d="M.354-.354a.5.5 0 1 0-.708.708l.708-.708zm1.414 2.829a.5.5 0 1 0 .707-.707l-.707.707zM-.354.354l2.122 2.12.707-.706L.354-.354l-.708.708z"/><path id="bg" d="M2.475.354a.5.5 0 1 0-.707-.708l.707.708zM-.354 1.768a.5.5 0 1 0 .708.707l-.708-.707zM1.768-.354L-.354 1.768l.708.707L2.474.354l-.706-.708z"/><path id="bi" d="M.5 0a.5.5 0 0 0-1 0h1zm-1 3a.5.5 0 0 0 1 0h-1zm0-3v3h1V0h-1z"/><path id="bk" fill-rule="evenodd" d="M.375.75a.375.375 0 1 0 0-.75.375.375 0 0 0 0 .75z"/><path id="bl" d="M.375 1C.72 1 1 .72 1 .375H.5A.125.125 0 0 1 .375.5V1zM1 .375A.625.625 0 0 0 .375-.25v.5C.444.25.5.306.5.375H1zM.375-.25A.625.625 0 0 0-.25.375h.5C.25.306.306.25.375.25v-.5zM-.25.375C-.25.72.03 1 .375 1V.5A.125.125 0 0 1 .25.375h-.5z"/></defs></svg><svg width="17" height="17" viewBox="0 0 17 17" xmlns:figma="http://www.figma.com/figma/ns" id="requests" y="16"><title>Icon</title><desc>Created using Figma</desc><g figma:type="frame" transform="translate(-1945 -4533)"><use xlink:href="#ca" transform="translate(1952.75 4540.75)" fill="#011B33" figma:type="vector"/><use xlink:href="#cb" transform="translate(1955.75 4542.25)" fill="#011B33" figma:type="vector"/><use xlink:href="#cc" transform="translate(1954.25 4543.75)" fill="#011B33" figma:type="vector"/><use xlink:href="#cd" transform="translate(1946.43 4534.34)" fill="#011B33" figma:type="vector"/><use xlink:href="#ce" transform="translate(1948.25 4537)" fill="#011B33" figma:type="vector"/><use xlink:href="#cf" transform="translate(1948.62 4539.62)" fill="#011B33" figma:type="vector"/><use xlink:href="#cg" transform="translate(1948.62 4541.86)" fill="#011B33" figma:type="vector"/><use xlink:href="#ch" transform="translate(1948.25 4543.75)" fill="#011B33" figma:type="vector"/><use xlink:href="#ci" transform="translate(1953.15 4534.36)" fill="#011B33" figma:type="vector"/></g><defs><path id="ca" d="M4.125 8.75A4.625 4.625 0 0 0 8.75 4.125h-1A3.625 3.625 0 0 1 4.125 7.75v1zM8.75 4.125A4.625 4.625 0 0 0 4.125-.5v1A3.625 3.625 0 0 1 7.75 4.125h1zM4.125-.5A4.625 4.625 0 0 0-.5 4.125h1A3.625 3.625 0 0 1 4.125.5v-1zM-.5 4.125A4.625 4.625 0 0 0 4.125 8.75v-1A3.625 3.625 0 0 1 .5 4.125h-1z"/><path id="cb" d="M1.625.375a.5.5 0 0 0-1 0h1zm-1 4.5a.5.5 0 0 0 1 0h-1zm0-4.5v4.5h1v-4.5h-1z"/><path id="cc" d="M.375.625a.5.5 0 0 0 0 1v-1zm4.5 1a.5.5 0 0 0 0-1v1zm-4.5 0h4.5v-1h-4.5v1z"/><path id="cd" d="M6.692.516a.5.5 0 1 0 .002-1l-.002 1zM0 0l.001-.5A.5.5 0 0 0-.5 0H0zm.022 14.272l-.5.001a.5.5 0 0 0 .497.5l.003-.5zm5.27.536a.5.5 0 1 0 .006-1l-.007 1zM6.693-.484L.001-.5 0 .5l6.693.016.002-1zM-.5 0l.022 14.272 1-.002L.5 0l-1 .002zm.519 14.771l5.272.036.007-1-5.273-.036-.006 1z"/><path id="ce" d="M.375.625a.5.5 0 0 0 0 1v-1zm2.25 1a.5.5 0 0 0 0-1v1zm-2.25 0h2.25v-1H.375v1z"/><path id="cf" d="M0 .252a.5.5 0 1 0 0 1v-1zm4.129.998a.5.5 0 1 0 0-1v1zM0 1.252L4.13 1.25v-1l-4.13.002.001 1z"/><path id="cg" d="M-.002.26a.5.5 0 1 0 .004 1l-.004-1zm2.632.99a.5.5 0 0 0-.004-1l.004 1zm-2.628.01l2.628-.01-.004-1-2.628.01.004 1z"/><path id="ch" d="M.375.625a.5.5 0 0 0 0 1v-1zm1.5 1a.5.5 0 0 0 0-1v1zm-1.5 0h1.5v-1h-1.5v1z"/><path id="ci" d="M.018 3.354l-.5.003a.5.5 0 0 0 .5.497v-.5zM0 0l.334-.372A.5.5 0 0 0-.5.003L0 0zm3.736 3.354v.5a.5.5 0 0 0 .334-.872l-.334.372zm-.66-.5H.019v1h3.059v-1zM.519 3.35L.5-.003l-1 .006.018 3.354 1-.006zM-.334.372l3.736 3.354.668-.744L.334-.372l-.668.744zm4.07 2.482h-.66v1h.66v-1z"/></defs></svg><svg width="17" height="17" viewBox="0 0 17 17" xmlns:figma="http://www.figma.com/figma/ns" id="settings" x="20"><title>icon</title><desc>Created using Figma</desc><use xlink:href="#da" transform="translate(1 1)" fill="#7C86A2" figma:type="vector-operation"/><defs><path id="da" d="M1.622 8.668l.49-.097-.08-.403h-.41v.5zm0-2.341v.5h.41l.08-.403-.49-.097zm.89-2.154l.416.28.23-.342-.292-.291-.353.353zm-.697-.697l-.353.354.353-.354zm0-.902l-.353-.354.353.354zm.759-.759l-.354-.353.354.353zm.902 0l.355-.352-.002-.001-.353.353zm.692.698l-.355.352.289.292.342-.227-.276-.417zm2.153-.891l.097.49.403-.08v-.41h-.5zm2.347 0h-.5v.41l.402.08.098-.49zm2.153.891l-.28.415.342.23.292-.291-.354-.354zm.697-.698l.354.354-.354-.354zm.903 0l-.354.354.001.001.353-.355zm.763.759l.354-.354-.001-.001-.353.355zm0 .902l-.353-.354.353.354zm-.697.697l-.354-.353-.289.29.226.34.417-.277zm.891 2.154l-.49.096.08.404h.41v-.5zm0 2.341v-.5h-.41l-.08.403.49.097zm-.89 2.153l-.416-.28-.23.342.291.291.354-.353zm.696.698l-.353.353.353-.353zm0 .902l.354.354-.354-.354zm-.758.758l.353.354-.353-.354zm-.902 0l-.354.354.354-.354zm-.697-.698l.353-.353-.29-.29-.34.227.276.416zm-2.154.892l-.096-.491-.404.08v.41h.5zm-2.347 0h.5v-.411l-.402-.08-.098.49zm-2.153-.892l.28-.414-.342-.23-.291.29.353.354zm-.697.698l.353.354-.353-.354zm-.902 0l-.354.354.354-.354zm-.759-.758l-.354.353.354-.353zm0-.902l-.353-.354.353.354zm.698-.698l.354.353.289-.289-.227-.34-.416.276zM.636 9.168h.986v-1H.636v1zM-.5 8.038c0 .627.509 1.13 1.136 1.13v-1a.132.132 0 0 1-.136-.13h-1zm0-1.075v1.074h1V6.963h-1zM.636 5.827C.003 5.827-.5 6.34-.5 6.963h1c0-.076.061-.136.136-.136v-1zm.986 0H.636v1h.986v-1zm.476-1.933a6.644 6.644 0 0 0-.967 2.335l.981.195c.143-.733.41-1.372.816-1.972l-.83-.558zm-.636-.064l.697.697.707-.707-.697-.698-.707.708zm0-1.61a1.139 1.139 0 0 0 0 1.61l.707-.707a.139.139 0 0 1 0-.196l-.707-.707zm.758-.758l-.758.758.707.707.758-.758-.707-.707zm1.61 0a1.138 1.138 0 0 0-1.61 0l.707.707a.138.138 0 0 1 .195 0l.707-.707zm.693.7l-.692-.699-.71.704.692.698.71-.704zm1.701-1.03a6.707 6.707 0 0 0-2.333.965l.553.833a5.28 5.28 0 0 1 1.974-.818l-.194-.98zM5.821.635v.986h1V.636h-1zM6.957-.5C6.324-.5 5.821.014 5.821.636h1c0-.075.06-.136.136-.136v-1zm1.074 0H6.957v1h1.074v-1zM9.168.636C9.168.003 8.653-.5 8.031-.5v1c.076 0 .137.061.137.136h1zm0 .986V.636h-1v.986h1zm1.932.476a6.643 6.643 0 0 0-2.334-.967l-.196.981c.733.143 1.372.41 1.972.816l.558-.83zm.065-.636l-.698.698.707.707.698-.698-.707-.707zm1.61 0a1.138 1.138 0 0 0-1.61 0l.707.707a.138.138 0 0 1 .195 0l.707-.707zm.762.757l-.764-.758-.705.71.764.758.705-.71zm0 1.61a1.138 1.138 0 0 0 0-1.609l-.706.707a.138.138 0 0 1 0 .195l.707.708zm-.696.698l.697-.697-.707-.707-.697.697.707.707zm1.028 1.703a6.698 6.698 0 0 0-.965-2.333l-.834.553c.403.603.675 1.238.818 1.973l.98-.193zm.494-.403h-.985v1h.985v-1zM15.5 6.963c0-.633-.515-1.136-1.137-1.136v1c.076 0 .137.06.137.136h1zm0 1.068V6.963h-1v1.068h1zm-1.137 1.137c.633 0 1.137-.515 1.137-1.137h-1a.137.137 0 0 1-.137.137v1zm-.985 0h.985v-1h-.985v1zm-.476 1.932c.457-.684.8-1.506.967-2.335l-.981-.194a5.217 5.217 0 0 1-.816 1.97l.83.559zm.636.065l-.697-.698-.708.707.698.698.707-.707zm0 1.61a1.138 1.138 0 0 0 0-1.61l-.707.707a.138.138 0 0 1 0 .196l.707.706zm-.758.758l.758-.758-.707-.708-.758.759.707.707zm-1.61 0a1.14 1.14 0 0 0 1.61 0l-.707-.708a.14.14 0 0 1-.196 0l-.706.708zm-.697-.698l.697.698.707-.707-.697-.698-.707.707zM8.77 13.863a6.695 6.695 0 0 0 2.333-.965l-.553-.833a5.271 5.271 0 0 1-1.973.817l.193.981zm.403.495v-.985h-1v.985h1zm-1.136 1.137c.634 0 1.136-.515 1.136-1.137h-1a.137.137 0 0 1-.136.137v1zm-1.074 0h1.074v-1H6.963v1zm-1.137-1.137c0 .633.515 1.137 1.137 1.137v-1a.137.137 0 0 1-.137-.137h-1zm0-.985v.985h1v-.985h-1zm-1.932-.477c.684.458 1.507.8 2.335.967l.195-.98a5.205 5.205 0 0 1-1.971-.816l-.559.83zm-.065.637l.698-.698-.707-.707-.698.698.707.707zm-1.608 0a1.139 1.139 0 0 0 1.608 0l-.706-.708a.139.139 0 0 1-.196 0l-.706.708zm-.76-.758l.76.758.706-.707-.758-.759-.707.707zm0-1.61a1.139 1.139 0 0 0 0 1.609l.708-.706a.139.139 0 0 1 0-.196l-.707-.707zm.698-.698l-.697.698.707.707.698-.698-.708-.707zM1.131 8.765a6.7 6.7 0 0 0 .965 2.332l.833-.553a5.274 5.274 0 0 1-.817-1.973l-.981.194zm6.364-3.483c1.223 0 2.217.994 2.217 2.218h1a3.219 3.219 0 0 0-3.217-3.218v1zM5.277 7.5c0-1.224.994-2.218 2.218-2.218v-1A3.219 3.219 0 0 0 4.277 7.5h1zm2.218 2.218A2.219 2.219 0 0 1 5.277 7.5h-1a3.22 3.22 0 0 0 3.218 3.218v-1zM9.712 7.5a2.219 2.219 0 0 1-2.217 2.218v1A3.219 3.219 0 0 0 10.712 7.5h-1z"/></defs></svg><svg width="15" height="13" viewBox="0 0 15 13" xmlns:figma="http://www.figma.com/figma/ns" id="sign-out" x="37"><title>sign-out-option</title><desc>Created using Figma</desc><g figma:type="frame" transform="translate(-1946 -5067)"><use xlink:href="#ea" transform="translate(1946 5067.09)" fill="#FFF" figma:type="vector"/><use xlink:href="#eb" transform="translate(1949.64 5067.41)" fill="#FFF" figma:type="vector"/></g><defs><path id="ea" fill-rule="evenodd" d="M6.075 11.803a.278.278 0 0 1-.02-.135c.007-.037-.015-.067-.065-.09-.052-.023-.077-.042-.077-.055 0-.013-.036-.023-.109-.03l-.11-.01h-2.96c-.418 0-.775-.156-1.073-.468a1.575 1.575 0 0 1-.446-1.126V2.87c0-.439.149-.814.446-1.127a1.428 1.428 0 0 1 1.072-.468h3.038a.277.277 0 0 0 .195-.065.334.334 0 0 0 .094-.194 1.771 1.771 0 0 0 .024-.498 4.597 4.597 0 0 1-.009-.2.315.315 0 0 0-.09-.225A.287.287 0 0 0 5.77 0H2.733C1.981 0 1.337.28.803.842A2.836 2.836 0 0 0 0 2.871v7.018c0 .79.267 1.466.802 2.028s1.179.843 1.931.843h3.038a.28.28 0 0 0 .195-.065.337.337 0 0 0 .095-.194 1.763 1.763 0 0 0 .023-.499 4.601 4.601 0 0 1-.009-.2z"/><path id="eb" fill-rule="evenodd" d="M11.058 5.612L5.895.19A.57.57 0 0 0 5.467 0a.572.572 0 0 0-.427.19.63.63 0 0 0-.18.448v2.87H.608a.572.572 0 0 0-.428.19.63.63 0 0 0-.18.449v3.828c0 .173.06.322.18.448a.57.57 0 0 0 .428.19H4.86v2.87c0 .173.06.323.18.45.12.126.263.189.427.189a.57.57 0 0 0 .428-.19l5.163-5.423a.627.627 0 0 0 .18-.448.627.627 0 0 0-.18-.449z"/></defs></svg></svg>